<svg xmlns="http://www.w3.org/2000/svg" viewBox="0 0 140 120" fill="none" stroke="currentColor" stroke-width="3.5" stroke-linecap="round" stroke-linejoin="round">
<path d="M70 28 C74.8 47.2 80.8 53.2 100 58 C80.8 62.8 74.8 68.8 70 88 C65.2 68.8 59.2 62.8 40 58 C59.2 53.2 65.2 47.2 70 28 Z" fill="currentColor" stroke="none"/><path d="M104 27 C106.1 35.3 108.7 37.9 117 40 C108.7 42.1 106.1 44.7 104 53 C101.9 44.7 99.3 42.1 91 40 C99.3 37.9 101.9 35.3 104 27 Z" fill="currentColor" stroke="none"/><path d="M40 72 C41.6 78.4 43.6 80.4 50 82 C43.6 83.6 41.6 85.6 40 92 C38.4 85.6 36.4 83.6 30 82 C36.4 80.4 38.4 78.4 40 72 Z" fill="currentColor" stroke="none"/>
</svg>
