<svg xmlns="http://www.w3.org/2000/svg" viewBox="0 0 120 120" fill="none" stroke="currentColor" stroke-width="5" stroke-linecap="round" stroke-linejoin="round">
<rect x="34" y="40" width="52" height="50" rx="22" fill="none" stroke="currentColor" stroke-width="5"/><circle cx="52" cy="62" r="4" fill="currentColor"/><circle cx="68" cy="62" r="4" fill="currentColor"/><path d="M52 72 q8 9 16 0"/><path d="M34 66 q-9 -9 -7 -22"/><path d="M86 66 q9 -9 7 -22"/><path d="M26 33 L28.0 38.0 L33 40 L28.0 42.0 L26 47 L24.0 42.0 L19 40 L24.0 38.0 Z" fill="currentColor" stroke="none"/><path d="M94 33 L96.0 38.0 L101 40 L96.0 42.0 L94 47 L92.0 42.0 L87 40 L92.0 38.0 Z" fill="currentColor" stroke="none"/><path d="M60 19 L61.4 22.6 L65 24 L61.4 25.4 L60 29 L58.6 25.4 L55 24 L58.6 22.6 Z" fill="currentColor" stroke="none"/>
</svg>
